# xmcd
#
# Track frame offsets: 
#        150
#        9023
#        21609
#        33183
#        49517
#        62969
#        76669
#        89338
#        102520
#        113447
#        126040
#        137397
#        155188
#        169031
#        179057
#
# Disc length: 2556 seconds
#
# Revision: 2
# Processed by: cddbd v1.5.2PL0 Copyright (c) Steve Scherf et al.
# Submitted via: ExactAudioCopy v1.1
#
DISCID=b809fa0f
DTITLE=Various Artist - Country Jukebox: You Are The One [CD2]
DYEAR=2006
DGENRE=Country
TTITLE0=Johnnie  and Jack (The Tennessee Mountain Boys) - Oh, Baby Min
TTITLE0=e (I Get So Lonely)
TTITLE1=Marty Robbins - Tonight Carmen
TTITLE2=Don Gibson - Sea of Heartbreak
TTITLE3=Ray Price - Touch My Heart
TTITLE4=George Jones and Tammy Wynette - Were Gonna Hold On
TTITLE5=Stonewall Jackson - Don’t Be Angry
TTITLE6=Lynn Anderson - How Can I Unlove You
TTITLE7=Mickey Gilley - I Overlooked an Orchid
TTITLE8=Ronnie Milsap - Daydreams about Night Things
TTITLE9=Hank Snow - Hello Love
TTITLE10=Connie Smith - Just One Time
TTITLE11=Waylon Jennings with Jessi Colter - Suspicious Minds
TTITLE12=Lefty Frizzell - I Want to Be with You Always
TTITLE13=Johnny Cash - All Over Again
TTITLE14=Elvis Presley - Don't
EXTD=
EXTT0=
EXTT1=
EXTT2=
EXTT3=
EXTT4=
EXTT5=
EXTT6=
EXTT7=
EXTT8=
EXTT9=
EXTT10=
EXTT11=
EXTT12=
EXTT13=
EXTT14=
PLAYORDER=
